<svg id="Layer_1" data-name="Layer 1" xmlns="http://www.w3.org/2000/svg" viewBox="0 0 300 300"><defs><style>.cls-1{fill:#fff;}.cls-2{fill:#cdd0d1;}.cls-3{fill:#65d3d7;}.cls-4{fill:#f17768;}</style></defs><circle class="cls-1" cx="150" cy="150" r="147.5"/><path class="cls-2" d="M216.41,145.06c-1.75-2.11-8.08-3.21-5.28-6.9,2.13-2.81,7.63,1.67,8.73-1.52.65-1.86,1.6-9.06,5.12-4.27.81,1.09.22,3.09,1.47,3.92s3.52-.37,5-.19c4.67.59,2.64,4.17.24,6.18-3.31,2.78-.17,4.2.22,7.37.59,4.73-5.4.9-7.49.72-2.88-.24-6.7,5.13-8.29,3.36s.33-8.67.33-8.67"/><path class="cls-2" d="M175.32,147.27c-1.74-.83-6.08.35-5.4-2.83.52-2.42,5.35-1.2,5.11-3.55-.14-1.38-1.68-6.24,2-4.23.83.45,1,1.89,2.09,2.05s2.13-1.27,3.09-1.59c3.14-1,2.91,1.87,2,3.86-1.29,2.75,1.13,2.72,2.32,4.62,1.78,2.83-3.19,2.12-4.55,2.68-1.69.7-2.37,5.67-3.9,5s-2.74-6-2.74-6"/><path class="cls-2" d="M231.77,125.53c-.85-1-3.94-1.59-2.56-3.39,1-1.37,3.72.84,4.27-.72.32-.91.81-4.42,2.52-2.07.39.53.09,1.51.7,1.92s1.72-.17,2.42-.08c2.28.3,1.28,2,.11,3-1.63,1.35-.1,2.05.08,3.6.28,2.32-2.64.39-3.66.33-1.27-.06-3.18,2.87-4,2s.07-4.61.07-4.61"/><path class="cls-3" d="M82.75,86c-6,.17-10.85.93-11.92,2.1s-2.16,1.9-2.19,3.31,1.56,1.48,2.52,1.48S73,92.82,73,92.26c0-.8-1.29-.64-1.29-1.44s5-1.15,7.45-1.16c21.27-.06,45.76,14.77,45.8,27.34,0,9.77-12.61,12-19.58,12a37,37,0,0,1-7.16-.69c-.11-3.12-.29-9.64-.37-13.78h2.2c5.17,0,11.93,1.81,11.94,3,0,1-1.79,1.75-1.79,2.74,0,.74,1.66.61,3.11.71.25,0,3.17-1.61,3.16-4.2,0-3.42-4.26-7.48-18.12-7.44h-.59c-.14-3.84-.7-9.91-2.87-9.9-1.81,0-2.33,6.68-2.48,10.37-7.77,1.17-14.68,4.36-14.68,7.49,0,2.56,5.56,9,14.55,12.95.16,2.9.71,4.89,3.27,4.88,1.86,0,2.49-1.38,2.68-2.82a37.66,37.66,0,0,0,9.41,1.17c13,0,23.52-7.05,23.48-16.67,0-12.89-25.88-31.43-48.37-30.8m-3.51,32.09c0-2.25,6.78-3.1,13.06-3.42,0,3.52-.09,8.58-.08,12-7.72-2.74-13-7.1-13-8.54m59.35,5.65c.15,6.24-.45,6.45-2.22,6.46-2,0-3.07-.88-2.91-8.33.07-3.27.13-12.2,2.33-12.22,1.72,0,2.52,2.28,2.8,14.09m-1.65-17.48c4.88,0,12.65-5.6,12.64-10.23,0-2.08-1.08-3.15-3.75-3.53a7.24,7.24,0,0,0-5.22-2.28c-7.6,0-12.54,6.11-12.53,9.42a6.11,6.11,0,0,0,1.48,4c0,2.64.68,3.34,1.53,3.33a2,2,0,0,0,1.9-1.22,13.22,13.22,0,0,0,3.95.52m.51-3.74a9.85,9.85,0,0,1-2.87-.39c2.15-2.45,7.37-7.08,9.93-7.09a1.82,1.82,0,0,1,2,1.85c0,3.09-6.31,5.62-9,5.63m.35-8.24a25.44,25.44,0,0,0-6.33,5.24,2.85,2.85,0,0,1-.12-.73c0-1.49,2.17-3.8,6.45-4.51m7.45,21.1c0,.78,3.68.95,7.09,1.23,4.57.4,9.8,1,9.82,6.59,0,2.29-1.95,6.72-9.72,6.74s-10.68-4-10.68-5.77c0-3.32,3.15-4.23,5.35-4.24s8.87.82,8.87,2.5c0,.92-1.69,1.83-3.74,1.84s-5-1.84-6.45-1.84a1.88,1.88,0,0,0-2.07,1.54c0,.57.08,1.7,3.93,1.69,1.86,0,10.92-1,10.91-3.55,0-1.13-4.16-2.24-7.57-2.59-4.21-.43-10.53.62-10.54-3.67,0-6.34,11.28-6.61,13.51-6.62,3,0,8.25,0,8.26,2,0,3.47-16.93,1.59-17,4.12m36.85,6c0,2.9-1.78,7.37-4.82,7.38-2.8,0-7.84-10.45-8.76-10.45-1.24,0,.36,11.45-2.73,11.46-2.08,0-2.57-1.89-2.57-4.71s1.4-14.27,4.08-14.08,8.84,11.66,9.56,11.46c.46-.13.52-1.21.52-1.81,0-2.91-3-10.47-3-12.65,0-.72.12-1.41.76-1.41,2.56,0,7,8.14,7,14.81m16.47,5.14c-.07.69-5.08,4.6-10.68,4.79-3.53.11-4.81-3.75-4.82-5.5,0-1.14,1.07-3.84,1.43-5.17.12-.44-.48-1-.44-1.37.15-1.56,2.4-1.73,2.59-2.3a10.12,10.12,0,0,0,.59-2.62c-.08-.44-3.24-1.08-3.25-2.69s6.76-1.68,12-2.25c3-.34,5.49,2.52,5.29,3.21a2.05,2.05,0,0,1-1.6,1.33c-.49.12-7,.3-8,.71-.48.2-.78,2.19-.55,2.58s4.52.41,5.2.47c1.36.11,1.77,3.1-.42,3.22a62,62,0,0,0-6.25.22c-.76.25-1.51,3.75-1.11,4.12s6.44-1,7.52-1,2.61,1.2,2.49,2.24M217.74,111c-3,.18-8.9,6.69-12.31,11.07a2.94,2.94,0,0,1-.35-1.28c0-1.85,3.47-7.41,4.11-8.79s-.08-3.37-.93-2.68c-1.63,1.34-6.84,7.45-6.83,13.14a10.06,10.06,0,0,0,1.08,4.35c-1.17,3.81-4,12.3-3.93,17.45,0,2.66,2.73,5.28,4.33,4.92.61-.13.75-3.62,1.55-6,1.13-3.4,2.93-9.61,3.56-12.27a6.46,6.46,0,0,0,.89,0c6.37,0,13.43-6.85,13.41-12.73s-3.48-7.3-4.58-7.24m-7.33,14.56c2.55-4.47,6.29-10.4,7.66-10.37,1,0,1.32,1,1.33,2.44,0,4.37-5.24,8-9,7.93"/><path class="cls-4" d="M85.59,158.76a13.51,13.51,0,0,0-11.82,6.52V144.37H59.51V149h3.37c2.29,0,3.27,1,3.27,3.26v46.4h4.21l2.43-6.26a14.09,14.09,0,0,0,12.8,7.06c10.46,0,17.21-8,17.21-20.33s-6.75-20.33-17.21-20.33m-1.52,35.35c-9.3,0-10.3-10.5-10.3-15s1-15,10.3-15,10.3,10.51,10.3,15-1,15-10.3,15"/><path class="cls-4" d="M143.62,173.31c0,4.24-1.12,6.39-3.34,6.39-1.54,0-1.67-2.93-1.67-3.83V157.16c0-11.92-7.88-13.53-15.6-13.53-6,0-15.61,2.7-15.61,9.93,0,3.76,1.75,6.09,4.57,6.09,2.41,0,5.22-1.21,5.22-4.65a4.08,4.08,0,0,0-3.28-4.32c1.8-1.66,4.6-2.46,8.54-2.46,7.11,0,8.54,2.47,8.54,6.46,0,2.2-.45,3.6-2.8,4.74a48.44,48.44,0,0,1-7.85,2.61c-7.3,2-14.86,4.08-14.86,11.84,0,6.62,4.44,10.41,12.17,10.41a18.24,18.24,0,0,0,13.91-5.78,7,7,0,0,0,7.28,5.78c6.57,0,9.37-3.59,9.37-12v-2.74h-4.59ZM131,169.63c0,5.33-6.25,10.07-11.18,10.07-3.81,0-5.9-2.21-5.9-6.23,0-2.57,1.57-4.2,5.82-6,1.84-.78,3.5-1.37,5.1-1.94A42.14,42.14,0,0,0,131,163Z"/><path class="cls-4" d="M172.93,159.56a13.5,13.5,0,0,0-11.82,6.51v-20.9H146.85v4.58h3.37c2.29,0,3.27,1,3.27,3.27v46.39h4.21l2.43-6.25a14.08,14.08,0,0,0,12.8,7.05c10.45,0,17.21-8,17.21-20.32s-6.76-20.33-17.21-20.33m-1.52,35.35c-9.3,0-10.3-10.51-10.3-15s1-15,10.3-15,10.3,10.5,10.3,15-1,15-10.3,15"/><path class="cls-4" d="M215.76,163.38h2.65c2.76,0,4.47.57,4.47,1.5a6.29,6.29,0,0,1-.53,2.39l-9,20.71-7.54-17.82-.52-1.24a17.42,17.42,0,0,1-1.53-4.36c0-.74.3-1.18,4.47-1.18h2.17v-4.59H188.89v4.59H191c2.65,0,4,1,5.38,4l13.43,29.41-3.75,7.58c-1.68,3.35-4.22,5-7.55,5a4.77,4.77,0,0,1-4.13-2.07c3-.16,4.63-1.59,4.63-4.08a4.47,4.47,0,0,0-4.74-4.57c-2.47,0-5.37,1.77-5.37,6.73,0,5.37,4.85,8.57,9.53,8.57a14,14,0,0,0,12.78-8.4l16.71-37.42c.79-1.79,2.51-4.79,5.06-4.79h2.65v-4.59H215.76Z"/></svg>